<svg xmlns="http://www.w3.org/2000/svg" xmlns:xlink="http://www.w3.org/1999/xlink" xmlns:inkscape="http://www.inkscape.org/namespaces/inkscape" version="1.1" width="720" height="720" viewBox="0 0 720 720">
<defs>
<clipPath id="clip_0">
<path transform="matrix(1,0,0,-1,0,720)" d="M0 0H720V720H0Z" clip-rule="evenodd"/>
</clipPath>
</defs>
<g clip-path="url(#clip_0)">
<path transform="matrix(1,0,0,-1,0,720)" d="M0 720H720V0H0Z" fill="#00aeef" fill-rule="evenodd"/>
<path transform="matrix(1.2629,0,0,-1.26686,0,720)" d="M285.0588 510.4862C410.4442 510.4862 512.0889 409.1596 512.0889 284.1667 512.0889 159.1739 410.4442 57.8466 285.0588 57.8466 159.6736 57.8466 58.0286 159.1739 58.0286 284.1667 58.0286 409.1596 159.6736 510.4862 285.0588 510.4862Z" fill="#00a650" fill-rule="evenodd"/>
<path transform="matrix(1.2629,0,0,-1.26686,0,720)" stroke-width="3.2224" stroke-linecap="butt" stroke-miterlimit="22.925585" stroke-linejoin="miter" fill="none" stroke="#60bb46" d="M285.0588 510.4862C410.4442 510.4862 512.0889 409.1596 512.0889 284.1667 512.0889 159.1739 410.4442 57.8466 285.0588 57.8466 159.6736 57.8466 58.0286 159.1739 58.0286 284.1667 58.0286 409.1596 159.6736 510.4862 285.0588 510.4862Z"/>
<path transform="matrix(.8712,0,0,-.87394,0,720)" d="M413.2233 638.2497C538.6085 638.2497 640.2535 536.9227 640.2535 411.9299 640.2535 286.937 538.6085 185.61 413.2233 185.61 287.8379 185.61 186.1929 286.937 186.1929 411.9299 186.1929 536.9227 287.8379 638.2497 413.2233 638.2497Z" fill="#60bb46" fill-rule="evenodd"/>
<path transform="matrix(.8712,0,0,-.87394,0,720)" stroke-width="3.9161" stroke-linecap="butt" stroke-miterlimit="22.925585" stroke-linejoin="miter" fill="none" stroke="#ffffff" d="M413.2233 638.2497C538.6085 638.2497 640.2535 536.9227 640.2535 411.9299 640.2535 286.937 538.6085 185.61 413.2233 185.61 287.8379 185.61 186.1929 286.937 186.1929 411.9299 186.1929 536.9227 287.8379 638.2497 413.2233 638.2497Z"/>
<path transform="matrix(1,0,0,-1,0,720)" d="M360 494.8563C434.4789 494.8563 494.856 434.4789 494.856 360 494.856 285.5211 434.4789 225.1437 360 225.1437 285.5211 225.1437 225.144 285.5211 225.144 360 225.144 434.4789 285.5211 494.8563 360 494.8563Z" fill="#ffffff" fill-rule="evenodd"/>
<path transform="matrix(1,0,0,-1,0,720)" stroke-width="3.4223" stroke-linecap="butt" stroke-miterlimit="22.925585" stroke-linejoin="miter" fill="none" stroke="#00aeef" d="M360 494.8563C434.4789 494.8563 494.856 434.4789 494.856 360 494.856 285.5211 434.4789 225.1437 360 225.1437 285.5211 225.1437 225.144 285.5211 225.144 360 225.144 434.4789 285.5211 494.8563 360 494.8563Z"/>
<path transform="matrix(1,0,0,-1,0,720)" d="M268.3267 173.9843C275.9992 163.1608 282.9815 144.3594 272.6768 136.8947 260.7364 145.6064 260.1303 161.9036 268.3267 173.9843" fill="#ffffff" fill-rule="evenodd"/>
<path transform="matrix(1,0,0,-1,0,720)" d="M248.2719 184.7854C254.9968 173.5557 260.6352 154.4774 250.1124 147.9566 239.0624 157.4459 239.423 173.5586 248.2719 184.7854" fill="#ffffff" fill-rule="evenodd"/>
<path transform="matrix(1,0,0,-1,0,720)" d="M229.2914 197.617C235.1248 186.0355 239.2798 166.8093 228.6139 161.2522 218.6226 171.4085 219.7006 187.2159 229.2914 197.617" fill="#ffffff" fill-rule="evenodd"/>
<path transform="matrix(1,0,0,-1,0,720)" d="M211.6704 212.4726C215.9986 200.0018 219.4656 181.436 208.4026 176.7115 199.1446 187.6116 201.6683 203.1897 211.6704 212.4726" fill="#ffffff" fill-rule="evenodd"/>
<path transform="matrix(1,0,0,-1,0,720)" d="M195.6008 229.1689C199.6064 215.4319 199.8907 197.6655 189.7146 194.2483 181.8207 205.1813 184.6823 220.5629 195.6008 229.1689" fill="#ffffff" fill-rule="evenodd"/>
<path transform="matrix(1,0,0,-1,0,720)" d="M181.309 247.5765C183.5768 235.0227 183.6428 216.415 172.7878 213.7462 165.7962 225.2594 170.1938 240.2955 181.309 247.5765" fill="#ffffff" fill-rule="evenodd"/>
<path transform="matrix(1,0,0,-1,0,720)" d="M169.0248 267.5256C170.458 255.7474 168.6251 236.7632 157.8747 235.0638 151.9509 248.3631 158.2007 261.8005 169.0248 267.5256" fill="#ffffff" fill-rule="evenodd"/>
<path transform="matrix(1,0,0,-1,0,720)" d="M158.9893 288.8306C159.2578 277.2791 155.8871 258.5809 145.3037 258.0528 140.7288 271.2736 147.5734 284.1928 158.9893 288.8306" fill="#ffffff" fill-rule="evenodd"/>
<path transform="matrix(1,0,0,-1,0,720)" d="M151.507 311.2713C150.4208 299.8806 145.7461 281.946 135.305 282.4203 132.0188 295.3936 139.5422 307.7929 151.507 311.2713" fill="#ffffff" fill-rule="evenodd"/>
<path transform="matrix(1,0,0,-1,0,720)" d="M146.6099 334.5489C144.3246 323.4002 138.2111 306.4005 128.0475 307.8641 125.9376 320.8119 134.6862 332.3925 146.6099 334.5489" fill="#ffffff" fill-rule="evenodd"/>
<path transform="matrix(1,0,0,-1,0,720)" d="M144.3957 358.3947C141.6478 348.0483 133.386 331.7091 123.6883 334.0562 122.8037 346.0363 131.8272 357.4599 144.3957 358.3947" fill="#ffffff" fill-rule="evenodd"/>
<path transform="matrix(1,0,0,-1,0,720)" d="M144.94 382.4396C139.875 369.5176 130.5964 357.7368 122.3144 360.6148 122.9717 373.4501 133.1167 382.8005 144.94 382.4396" fill="#ffffff" fill-rule="evenodd"/>
<path transform="matrix(1,0,0,-1,0,720)" d="M148.2639 406.2781C143.2358 397.0502 133.0948 382.9484 124.0087 387.1358 125.1785 398.0242 135.6012 407.9611 148.2639 406.2781" fill="#ffffff" fill-rule="evenodd"/>
<path transform="matrix(1,0,0,-1,0,720)" d="M154.3258 429.5988C148.4821 420.715 136.9902 408.3704 128.6688 413.1955 131.4493 424.9928 142.9841 432.284 154.3258 429.5988" fill="#ffffff" fill-rule="evenodd"/>
<path transform="matrix(1,0,0,-1,0,720)" d="M163.0208 452.0968C156.3871 444.1873 144.1633 432.7866 136.2158 438.4276 140.3317 450.1664 152.4719 455.6418 163.0208 452.0968" fill="#ffffff" fill-rule="evenodd"/>
<path transform="matrix(1,0,0,-1,0,720)" d="M174.1935 473.4831C166.9252 465.8119 153.6333 456.4579 146.4888 462.488 151.6825 473.783 164.4182 477.7563 174.1935 473.4831" fill="#ffffff" fill-rule="evenodd"/>
<path transform="matrix(1,0,0,-1,0,720)" d="M187.6365 493.5053C180.4759 486.8493 165.9552 478.5111 159.2603 485.0932 165.282 495.4689 178.062 498.5725 187.6365 493.5053" fill="#ffffff" fill-rule="evenodd"/>
<path transform="matrix(1,0,0,-1,0,720)" d="M203.1494 511.9194C194.8297 505.554 180.3005 499.2075 174.2771 506.0052 181.0882 515.7074 193.9893 517.6536 203.1494 511.9194" fill="#ffffff" fill-rule="evenodd"/>
<path transform="matrix(1,0,0,-1,0,720)" d="M220.4623 528.5738C210.1995 522.0794 196.4622 518.4468 191.3068 525.0124 197.7874 533.2088 210.983 535.4172 220.4623 528.5738" fill="#ffffff" fill-rule="evenodd"/>
<path transform="matrix(1,0,0,-1,0,720)" d="M239.3768 543.3304C230.8759 538.8497 215.3917 534.4084 210.0841 542.0211 217.686 550.086 230.9244 550.266 239.3768 543.3304" fill="#ffffff" fill-rule="evenodd"/>
<path transform="matrix(1,0,0,-1,0,720)" d="M259.5322 556.0971C250.7479 552.668 235.4751 548.4934 230.2237 556.9285 238.5181 564.2909 251.6009 563.4011 259.5322 556.0971" fill="#ffffff" fill-rule="evenodd"/>
<path transform="matrix(1,0,0,-1,0,720)" d="M240.2768 108.9848C240.0877 124.0376 251.2687 135.4473 268.0968 131.8377 272.5064 120.1983 263.4299 107.6956 240.2768 108.9848" fill="#ffffff" fill-rule="evenodd"/>
<path transform="matrix(1,0,0,-1,0,720)" d="M215.4192 124.1371C216.7965 138.9861 229.1808 148.5366 245.0472 143.3608 248.2149 131.6211 238.0723 120.3307 215.4192 124.1371" fill="#ffffff" fill-rule="evenodd"/>
<path transform="matrix(1,0,0,-1,0,720)" d="M191.9381 141.8842C194.91 156.0827 207.7503 164.0086 223.043 157.2174 224.968 145.5454 213.7969 135.6347 191.9381 141.8842" fill="#ffffff" fill-rule="evenodd"/>
<path transform="matrix(1,0,0,-1,0,720)" d="M170.2307 162.1522C174.35 174.6612 186.7779 181.872 202.3943 173.2944 203.2747 158.8612 187.1609 154.7223 170.2307 162.1522" fill="#ffffff" fill-rule="evenodd"/>
<path transform="matrix(1,0,0,-1,0,720)" d="M150.516 184.782C155.903 196.3142 168.565 201.7103 183.3134 191.522 182.7255 178.4446 167.8399 174.7097 150.516 184.782" fill="#ffffff" fill-rule="evenodd"/>
<path transform="matrix(1,0,0,-1,0,720)" d="M133.0957 209.63C140.6761 221.6239 155.6269 222.1554 166.0796 211.8118 163.4749 196.6212 145.0386 200.2275 133.0957 209.63" fill="#ffffff" fill-rule="evenodd"/>
<path transform="matrix(1,0,0,-1,0,720)" d="M118.2889 236.4891C126.7396 246.5425 141.3777 245.8817 151.0002 234.036 146.6257 219.3378 129.3772 225.93 118.2889 236.4891" fill="#ffffff" fill-rule="evenodd"/>
<path transform="matrix(1,0,0,-1,0,720)" d="M106.4529 265.108C116.7953 274.1944 130.2233 269.8911 138.2987 257.9494 132.5381 244.7561 115.2499 253.0596 106.4529 265.108" fill="#ffffff" fill-rule="evenodd"/>
<path transform="matrix(1,0,0,-1,0,720)" d="M97.9404 295.1158C107.3585 301.134 120.7698 298.1874 128.2306 283.2936 121.6205 272.3023 106.8293 280.012 97.9404 295.1158" fill="#ffffff" fill-rule="evenodd"/>
<path transform="matrix(1,0,0,-1,0,720)" d="M92.8837 325.9913C102.7585 330.2399 115.1773 325.5591 121.0232 309.7565 112.8124 299.5608 98.8784 311.622 92.8837 325.9913" fill="#ffffff" fill-rule="evenodd"/>
<path transform="matrix(1,0,0,-1,0,720)" d="M91.3927 357.2087C103.0003 360.0283 114.336 350.5198 116.9218 336.9764 108.087 329.0119 96.5228 340.5954 91.3927 357.2087" fill="#ffffff" fill-rule="evenodd"/>
<path transform="matrix(1,0,0,-1,0,720)" d="M93.4716 388.2671C104.4269 389.0052 114.7482 379.1129 115.9415 364.5125 106.77 358.4713 96.5704 370.3005 93.4716 388.2671" fill="#ffffff" fill-rule="evenodd"/>
<path transform="matrix(1,0,0,-1,0,720)" d="M99.0893 418.7078C110.9684 417.4112 118.6778 404.6409 118.0429 391.9445 106.8593 386.9203 99.4178 404.8027 99.0893 418.7078" fill="#ffffff" fill-rule="evenodd"/>
<path transform="matrix(1,0,0,-1,0,720)" d="M108.0935 447.9999C118.4009 445.0277 125.6031 432.2775 123.2368 418.8586 113.2583 416.0608 106.7868 431.3492 108.0935 447.9999" fill="#ffffff" fill-rule="evenodd"/>
<path transform="matrix(1,0,0,-1,0,720)" d="M120.2315 475.7006C128.9707 471.5042 135.2007 459.716 131.4558 444.8251 120.054 443.5943 117.5488 463.5196 120.2315 475.7006" fill="#ffffff" fill-rule="evenodd"/>
<path transform="matrix(1,0,0,-1,0,720)" d="M135.1738 501.4633C143.2953 495.8359 147.7145 483.0109 142.448 469.4987 132.7924 470.0633 130.409 485.731 135.1738 501.4633" fill="#ffffff" fill-rule="evenodd"/>
<path transform="matrix(1,0,0,-1,0,720)" d="M152.5972 525.0124C160.1416 517.8728 162.3183 503.9065 155.9639 492.5897 146.895 494.6236 146.0747 509.953 152.5972 525.0124" fill="#ffffff" fill-rule="evenodd"/>
<path transform="matrix(1,0,0,-1,0,720)" d="M172.1356 546.215C178.4925 538.17 179.1714 524.3454 171.7291 513.8892 162.5751 517.4955 165.047 534.2312 172.1356 546.215" fill="#ffffff" fill-rule="evenodd"/>
<path transform="matrix(1,0,0,-1,0,720)" d="M193.4283 564.9477C198.7072 555.9491 197.5374 541.8156 189.4385 533.2025 181.5222 537.7799 184.5275 552.9385 193.4283 564.9477" fill="#ffffff" fill-rule="evenodd"/>
<path transform="matrix(1,0,0,-1,0,720)" d="M216.2631 581.2257C220.6582 570.7888 216.8634 557.1122 208.8992 550.4788 201.0923 556.5611 208.1517 572.819 216.2631 581.2257" fill="#ffffff" fill-rule="evenodd"/>
<path transform="matrix(1,0,0,-1,0,720)" d="M240.3142 594.9601C243.1264 584.8906 239.0876 571.8334 229.8424 565.5152 223.4945 572.0681 230.2288 585.8634 240.3142 594.9601" fill="#ffffff" fill-rule="evenodd"/>
<path transform="matrix(1,0,0,-1,0,720)" d="M284.9182 588.1878C275.5443 578.9333 256.8866 567.0493 244.626 570.3732 248.7359 580.3194 264.8707 590.6823 284.9182 588.1878" fill="#ffffff" fill-rule="evenodd"/>
<path transform="matrix(1,0,0,-1,0,720)" d="M451.6724 173.9843C444.0025 163.1608 437.0193 144.3594 447.3241 136.8947 459.2628 145.6064 459.8697 161.9036 451.6724 173.9843" fill="#ffffff" fill-rule="evenodd"/>
<path transform="matrix(1,0,0,-1,0,720)" d="M471.729 184.7854C464.9173 173.414 459.4158 154.4454 469.8884 147.9566 481.1281 157.6066 480.414 173.7649 471.729 184.7854" fill="#ffffff" fill-rule="evenodd"/>
<path transform="matrix(1,0,0,-1,0,720)" d="M490.7095 197.617C484.9597 186.2036 480.6941 166.8257 491.3878 161.2522 501.7569 171.796 499.9048 187.6445 490.7095 197.617" fill="#ffffff" fill-rule="evenodd"/>
<path transform="matrix(1,0,0,-1,0,720)" d="M508.3296 212.4726C504.0967 200.2796 500.5301 181.436 511.596 176.7115 521.21 188.0283 517.8433 203.6409 508.3296 212.4726" fill="#ffffff" fill-rule="evenodd"/>
<path transform="matrix(1,0,0,-1,0,720)" d="M524.4018 229.1689C520.9381 217.3039 519.366 197.9133 530.2862 194.2483 538.2697 205.3037 535.1865 220.6689 524.4018 229.1689" fill="#ffffff" fill-rule="evenodd"/>
<path transform="matrix(1,0,0,-1,0,720)" d="M538.691 247.5765C536.4224 235.0227 536.358 216.415 547.2139 213.7462 554.1494 225.1689 549.9249 240.2178 538.691 247.5765" fill="#ffffff" fill-rule="evenodd"/>
<path transform="matrix(1,0,0,-1,0,720)" d="M550.9752 267.5256C549.5386 255.7182 551.4058 236.7595 562.1261 235.0638 568.1061 248.4856 561.81 261.7943 550.9752 267.5256" fill="#ffffff" fill-rule="evenodd"/>
<path transform="matrix(1,0,0,-1,0,720)" d="M561.0107 288.8306C560.7422 277.2791 564.1146 258.5809 574.6963 258.0528 579.2386 271.1775 572.584 284.1279 561.0107 288.8306" fill="#ffffff" fill-rule="evenodd"/>
<path transform="matrix(1,0,0,-1,0,720)" d="M568.4922 311.2713C569.5778 299.8933 574.2856 281.9489 584.6933 282.4203 588.145 296.0413 579.8823 307.961 568.4922 311.2713" fill="#ffffff" fill-rule="evenodd"/>
<path transform="matrix(1,0,0,-1,0,720)" d="M573.3918 334.5489C575.6754 323.4002 581.7875 306.4005 591.9534 307.8641 594.0748 320.8958 585.2718 332.3988 573.3918 334.5489" fill="#ffffff" fill-rule="evenodd"/>
<path transform="matrix(1,0,0,-1,0,720)" d="M575.6043 358.3947C578.3715 347.9706 586.6432 331.7156 596.3108 334.0562 597.1864 345.9203 588.2924 357.45 575.6043 358.3947" fill="#ffffff" fill-rule="evenodd"/>
<path transform="matrix(1,0,0,-1,0,720)" d="M575.0592 382.4396C578.9701 372.4642 588.2689 357.3439 597.6856 360.6148 596.9948 374.0888 586.292 382.784 575.0592 382.4396" fill="#ffffff" fill-rule="evenodd"/>
<path transform="matrix(1,0,0,-1,0,720)" d="M571.7367 406.2781C576.7668 397.0437 586.9794 382.9842 595.9922 387.1358 594.8065 398.1694 584.2332 407.9384 571.7367 406.2781" fill="#ffffff" fill-rule="evenodd"/>
<path transform="matrix(1,0,0,-1,0,720)" d="M565.6751 429.5988C571.3061 421.0313 582.7757 408.2352 591.3312 413.1955 588.5666 424.9318 577.0352 432.2866 565.6751 429.5988" fill="#ffffff" fill-rule="evenodd"/>
<path transform="matrix(1,0,0,-1,0,720)" d="M556.9784 452.0968C563.6129 444.1873 575.8376 432.7866 583.7851 438.4276 579.67 450.1664 567.5272 455.6418 556.9784 452.0968" fill="#ffffff" fill-rule="evenodd"/>
<path transform="matrix(1,0,0,-1,0,720)" d="M545.8065 473.4831C553.0757 465.8119 566.3682 456.4579 573.5129 462.488 568.3184 473.783 555.5826 477.7563 545.8065 473.4831" fill="#ffffff" fill-rule="evenodd"/>
<path transform="matrix(1,0,0,-1,0,720)" d="M532.3635 493.5053C539.3316 487.0301 553.9955 478.4627 560.7397 485.0932 554.5091 495.826 541.6087 498.3979 532.3635 493.5053" fill="#ffffff" fill-rule="evenodd"/>
<path transform="matrix(1,0,0,-1,0,720)" d="M516.8489 511.9194C524.2714 506.2399 539.4521 498.9271 545.7237 506.0052 538.6561 516.0747 525.6283 517.4152 516.8489 511.9194" fill="#ffffff" fill-rule="evenodd"/>
<path transform="matrix(1,0,0,-1,0,720)" d="M499.5383 528.5738C507.3503 523.6299 522.8203 517.5349 528.694 525.0124 521.8974 533.609 508.5921 535.1111 499.5383 528.5738" fill="#ffffff" fill-rule="evenodd"/>
<path transform="matrix(1,0,0,-1,0,720)" d="M480.6232 543.3304C489.1249 538.8497 504.6066 534.4084 509.9168 542.0211 502.3145 550.086 489.0747 550.266 480.6232 543.3304" fill="#ffffff" fill-rule="evenodd"/>
<path transform="matrix(1,0,0,-1,0,720)" d="M460.4661 556.0971C468.9947 552.7678 484.6856 548.7511 489.7772 556.9285 481.2284 564.5166 468.1474 563.1727 460.4661 556.0971" fill="#ffffff" fill-rule="evenodd"/>
<path transform="matrix(1,0,0,-1,0,720)" d="M479.7232 108.9848C479.9123 124.0376 468.7322 135.4473 451.9049 131.8377 447.4945 120.1983 456.5693 107.6956 479.7232 108.9848" fill="#ffffff" fill-rule="evenodd"/>
<path transform="matrix(1,0,0,-1,0,720)" d="M504.58 124.1371C503.2437 138.5575 491.1812 148.6565 474.9537 143.3608 471.7851 131.6211 481.9277 120.3307 504.58 124.1371" fill="#ffffff" fill-rule="evenodd"/>
<path transform="matrix(1,0,0,-1,0,720)" d="M528.0627 141.8842C525.1711 155.6952 512.5014 164.1212 496.9579 157.2174 494.2854 141.0171 512.5541 137.452 528.0627 141.8842" fill="#ffffff" fill-rule="evenodd"/>
<path transform="matrix(1,0,0,-1,0,720)" d="M549.771 162.1522C545.6795 174.5708 533.1719 181.8454 517.6049 173.2944 516.7253 158.851 532.8558 154.7286 549.771 162.1522" fill="#ffffff" fill-rule="evenodd"/>
<path transform="matrix(1,0,0,-1,0,720)" d="M569.4831 184.782C564.179 196.1408 551.4233 201.7003 536.6883 191.522 537.2016 180.0765 550.5143 173.7522 569.4831 184.782" fill="#ffffff" fill-rule="evenodd"/>
<path transform="matrix(1,0,0,-1,0,720)" d="M586.9035 209.63C579.3248 221.6239 564.374 222.1554 553.9221 211.8118 556.5243 196.6212 574.9614 200.2275 586.9035 209.63" fill="#ffffff" fill-rule="evenodd"/>
<path transform="matrix(1,0,0,-1,0,720)" d="M601.7119 236.4891C593.2604 246.5425 578.6223 245.8817 568.9998 234.036 573.3743 219.3378 590.6228 225.93 601.7119 236.4891" fill="#ffffff" fill-rule="evenodd"/>
<path transform="matrix(1,0,0,-1,0,720)" d="M613.5477 265.108C603.4229 274.0008 589.8827 270.0493 581.7022 257.9494 587.5665 244.5148 605.0336 253.4496 613.5477 265.108" fill="#ffffff" fill-rule="evenodd"/>
<path transform="matrix(1,0,0,-1,0,720)" d="M622.0582 295.1158C612.6415 301.134 599.2311 298.1874 591.7677 283.2936 598.3812 272.3023 613.1699 280.012 622.0582 295.1158" fill="#ffffff" fill-rule="evenodd"/>
<path transform="matrix(1,0,0,-1,0,720)" d="M627.1146 325.9913C617.2407 330.2399 604.8244 325.5591 598.9776 309.7565 607.1876 299.5608 621.123 311.622 627.1146 325.9913" fill="#ffffff" fill-rule="evenodd"/>
<path transform="matrix(1,0,0,-1,0,720)" d="M628.6073 357.2087C616.9989 360.0283 605.6649 350.5198 603.0777 336.9764 611.6771 329.2277 623.2439 339.838 628.6073 357.2087" fill="#ffffff" fill-rule="evenodd"/>
<path transform="matrix(1,0,0,-1,0,720)" d="M626.5276 388.2671C615.5739 389.0052 605.2518 379.1129 604.0602 364.5125 613.2317 358.4713 623.4304 370.3005 626.5276 388.2671" fill="#ffffff" fill-rule="evenodd"/>
<path transform="matrix(1,0,0,-1,0,720)" d="M620.9107 418.7078C609.1937 417.4277 601.3165 404.7735 601.9571 391.9445 613.1407 386.9203 620.583 404.8027 620.9107 418.7078" fill="#ffffff" fill-rule="evenodd"/>
<path transform="matrix(1,0,0,-1,0,720)" d="M611.9073 447.9999C600.9335 444.835 594.544 431.4515 596.7615 418.8586 606.8421 416.0324 613.205 431.4552 611.9073 447.9999" fill="#ffffff" fill-rule="evenodd"/>
<path transform="matrix(1,0,0,-1,0,720)" d="M599.7677 475.7006C591.0151 471.4977 584.8027 459.7004 588.5433 444.8251 599.9451 443.5943 602.4529 463.5196 599.7677 475.7006" fill="#ffffff" fill-rule="evenodd"/>
<path transform="matrix(1,0,0,-1,0,720)" d="M584.8262 501.4633C576.7047 495.8359 572.2537 483.0914 577.552 469.4987 587.7414 470.0954 589.3016 486.6849 584.8262 501.4633" fill="#ffffff" fill-rule="evenodd"/>
<path transform="matrix(1,0,0,-1,0,720)" d="M567.4037 525.0124C559.8575 517.8728 557.68 503.9065 564.0344 492.5897 573.1058 494.6236 573.9262 509.953 567.4037 525.0124" fill="#ffffff" fill-rule="evenodd"/>
<path transform="matrix(1,0,0,-1,0,720)" d="M547.8661 546.215C541.5083 538.17 540.8303 524.3454 548.2701 513.8892 557.424 517.4955 554.9513 534.2312 547.8661 546.215" fill="#ffffff" fill-rule="evenodd"/>
<path transform="matrix(1,0,0,-1,0,720)" d="M526.5726 564.9477C521.2919 555.9491 522.4635 541.8156 530.5615 533.2025 538.4786 537.7799 535.4725 552.9385 526.5726 564.9477" fill="#ffffff" fill-rule="evenodd"/>
<path transform="matrix(1,0,0,-1,0,720)" d="M503.7361 581.2257C499.341 570.7888 503.1374 557.1122 511.1025 550.4788 518.9085 556.5611 511.8491 572.819 503.7361 581.2257" fill="#ffffff" fill-rule="evenodd"/>
<path transform="matrix(1,0,0,-1,0,720)" d="M479.6858 594.9601C476.998 585.3353 480.6088 572.0426 490.1576 565.5152 497.3559 572.9479 487.5296 587.8882 479.6858 594.9601" fill="#ffffff" fill-rule="evenodd"/>
<path transform="matrix(1,0,0,-1,0,720)" d="M435.0818 588.1878C444.5269 578.863 463.1119 567.0493 475.3749 570.3732 469.6435 584.2426 448.9228 589.9085 435.0818 588.1878" fill="#ffffff" fill-rule="evenodd"/>
<path transform="matrix(1,0,0,-1,0,720)" d="M270.4833 354.454C270.3713 354.2355 270.2619 354.1292 270.2412 353.757 270.2203 353.3907 270.0595 353.2309 270.0397 353.058L269.8858 351.6602C270.0258 347.0516 279.644 327.2312 282.0495 322.4696 284.5882 317.4449 284.3799 317.5265 290.7337 316.1018 356.9443 301.2503 365.5925 329.1245 422.6134 320.1276 430.3514 318.9064 441.5613 315.0125 448.0889 315.5131 450.6276 320.7509 452.4959 328.0671 454.6185 334.3317 458.4767 345.7182 464.4028 359.7724 470.304 370.6078 472.4782 374.5998 478.5721 383.0797 478.0321 388.0834 470.0636 389.8196 388.8561 372.7624 375.9216 369.8572 360.0516 366.2932 341.8206 362.6646 325.2229 360.0643 316.8853 358.7587 307.677 357.2864 298.569 356.5001Z" fill="#00aeef" fill-rule="evenodd"/>
<path transform="matrix(1,0,0,-1,0,720)" d="M277.0628 314.5757C293.891 299.899 338.7212 299.7621 364.2463 304.3301 378.9896 306.9677 395.5912 309.3188 411.5248 307.1415 423.095 305.5601 447.2867 301.5768 454.7021 309.5323 451.3961 311.2279 417.4974 316.8394 411.6053 317.425 395.9408 318.981 379.6466 316.184 365.6789 312.9565 341.4266 307.353 322.3667 305.5232 297.176 310.6392 292.8345 311.5208 279.2143 316.1523 277.0628 314.5757" fill="#00aeef" fill-rule="evenodd"/>
<path transform="matrix(1,0,0,-1,0,720)" d="M393.8666 401.1545C393.6623 401.0176 393.3286 401.1089 393.2144 400.8061L385.9608 396.0865C382.2131 391.6466 383.4094 381.0285 383.4808 375.0168 388.173 374.6874 400.2812 377.3837 405.0397 378.6894 405.3654 396.3424 405.019 392.4655 398.6323 400.1182 398.507 400.2681 398.2975 400.5193 398.1617 400.7426 410.3325 406.2685 404.6287 416.3108 399.9039 417.5736 395.2247 418.8237 391.2724 416.5075 390.1646 412.7338 388.171 405.9468 391.4889 404.8438 393.8666 401.1545" fill="#00aeef" fill-rule="evenodd"/>
<path transform="matrix(1,0,0,-1,0,720)" d="M301.1204 296.7012C322.4211 280.8641 371.5254 293.7059 394.3324 295.3936 402.1248 295.9705 425.3128 294.3938 430.2422 296.0827L424.455 298.3751C421.8321 298.9559 419.0851 299.5415 416.7896 299.9557 397.2144 303.4942 386.2857 301.5541 367.5543 298.544 348.7861 295.5277 336.7723 292.9294 317.0095 294.2799 311.6761 294.6441 306.0281 296.318 301.1204 296.7012" fill="#00aeef" fill-rule="evenodd"/>
<path transform="matrix(1,0,0,-1,0,720)" d="M353.8715 374.8433C351.0686 372.7653 350.1652 371.4021 349.3086 367.8032 353.52 367.2065 374.4224 372.3185 379.7957 373.64 380.2453 380.4367 380.5611 388.698 376.2901 393.1665 372.1847 397.4593 363.6882 398.5605 359.4402 389.7989 356.9828 384.7306 359.1383 388.4556 354.3627 385.628 349.0353 381.6023 351.8104 376.1546 353.8715 374.8433" fill="#00aeef" fill-rule="evenodd"/>
<path transform="matrix(1,0,0,-1,0,720)" d="M332.3653 381.8217C326.1472 381.3996 324.2747 373.7203 328.2083 369.9734 326.5651 368.1309 326.0282 366.2019 325.2161 363.1788 328.8268 363.3038 340.5192 365.1018 343.8391 366.0211 347.1372 366.9344 345.5507 366.177 346.7945 368.1317 346.8334 368.1924 348.7504 371.8777 348.798 371.971 352.0882 376.939 348.2521 375.5928 348.9004 380.8687 349.511 385.096 351.6236 385.1467 349.8871 388.5182 346.5295 395.2026 332.1516 396.1777 332.3653 381.8217" fill="#00aeef" fill-rule="evenodd"/>
<path transform="matrix(1,0,0,-1,0,720)" d="M277.8222 372.5756 277.9475 357.8304 288.9893 357.9914C290.556 366.0401 290.9313 367.7258 295.4455 371.7349 292.0552 375.406 290.9313 379.7138 293.7994 385.5597 282.7723 391.0666 277.7936 385.1666 277.8222 372.5756" fill="#00aeef" fill-rule="evenodd"/>
<path transform="matrix(1,0,0,-1,0,720)" d="M432.3438 384.4477C436.6548 384.1946 448.363 386.8016 453.1195 387.8402 452.9458 396.5598 451.7634 405.4346 441.5374 404.3574 432.2339 403.3786 431.653 394.3142 432.3438 384.4477" fill="#00aeef" fill-rule="evenodd"/>
<path transform="matrix(1,0,0,-1,0,720)" d="M408.3092 379.6991C413.4875 379.7983 419.7016 381.5328 424.724 382.4422 428.7144 383.1659 429.1591 383.1273 428.9187 387.6375 428.4232 396.968 418.4289 401.1783 412.1124 395.9929 407.4435 392.1599 408.3151 386.9813 408.3092 379.6991" fill="#00aeef" fill-rule="evenodd"/>
<path transform="matrix(1,0,0,-1,0,720)" d="M308.6291 386.7103C314.3537 380.823 312.4723 375.2385 309.2338 371.7349 314.7211 367.1637 312.5537 367.0379 314.4997 361.62L322.1036 362.4996C323.553 365.5834 324.6372 367.2077 323.964 370.1146 323.1887 373.4663 325.203 391.8807 308.6291 386.7103" fill="#00aeef" fill-rule="evenodd"/>
<path transform="matrix(1,0,0,-1,0,720)" d="M442.9491 421.5787C433.1599 417.1844 439.0007 401.8476 449.1434 406.1364 458.4121 410.0562 453.4123 426.2757 442.9491 421.5787" fill="#00aeef" fill-rule="evenodd"/>
<path transform="matrix(1,0,0,-1,0,720)" d="M419.2191 415.1066C410.0494 411.6773 414.1179 395.454 425.0687 399.731 433.5432 403.041 429.8717 419.0927 419.2191 415.1066" fill="#00aeef" fill-rule="evenodd"/>
<path transform="matrix(1,0,0,-1,0,720)" d="M368.6304 412.7377C359.447 406.6053 367.2794 393.0851 376.6275 398.6824 384.5869 403.448 378.072 419.0411 368.6304 412.7377" fill="#00aeef" fill-rule="evenodd"/>
<path transform="matrix(1,0,0,-1,0,720)" d="M343.3059 410.3898C332.4257 406.7501 337.5666 391.5771 347.7864 394.7638 356.6225 397.518 353.5883 413.8299 343.3059 410.3898" fill="#00aeef" fill-rule="evenodd"/>
<path transform="matrix(1,0,0,-1,0,720)" d="M286.6385 404.7347C277.7737 400.1967 283.396 384.7207 293.5979 389.9985 301.9782 394.3341 296.625 409.8467 286.6385 404.7347" fill="#00aeef" fill-rule="evenodd"/>
<path transform="matrix(1,0,0,-1,0,720)" d="M312.6926 404.7248C303.3981 399.9821 309.7253 384.7496 319.703 390.0291 327.9481 394.3916 322.4608 409.7078 312.6926 404.7248" fill="#00aeef" fill-rule="evenodd"/>
<path transform="matrix(1,0,0,-1,0,720)" d="M293.4522 359.0277 310.6216 360.4178C313.2607 372.1249 292.8127 376.4475 293.4522 359.0277" fill="#00aeef" fill-rule="evenodd"/>
<path transform="matrix(1,0,0,-1,0,720)" d="M298.6087 383.5026C292.4731 378.1264 300.0393 367.973 306.4867 373.8623 312.23 379.1072 304.5268 388.688 298.6087 383.5026" fill="#00aeef" fill-rule="evenodd"/>
<path transform="matrix(1,0,0,-1,0,720)" d="M318.3925 340.7944C318.7531 337.1097 317.5265 334.5866 314.7146 333.2262L321.3428 325.5695 315.0252 324.9516 309.2071 331.7907 305.6533 331.4435 306.3708 324.1052 301.2378 323.6034 298.9885 346.604 307.7082 347.4567C311.2846 347.8065 313.8934 347.4527 315.5357 346.3954 317.1784 345.3375 318.1306 343.4712 318.3925 340.7944ZM308.9701 336.2522C310.7251 336.424 311.8929 336.8262 312.4732 337.4586 313.0534 338.0913 313.2831 339.027 313.1617 340.2663 313.0404 341.5059 312.6285 342.324 311.9253 342.7203 311.2226 343.1163 310.0482 343.2345 308.4026 343.0732L304.5529 342.697 305.2188 335.8857ZM339.4953 350.5654 339.9423 345.9917 328.4912 344.8718 328.9547 340.1331 339.2541 341.1403 339.6818 336.7641 329.3824 335.757 329.849 330.9857 341.6621 332.1408 342.106 327.6 325.1602 325.9429 322.9109 348.9435ZM352.224 347.7903C351.3682 347.7067 350.7137 347.4377 350.2599 346.9833 349.8058 346.5295 349.6119 345.9682 349.6768 345.299 349.7423 344.6297 350.0966 344.1271 350.7384 343.7915 351.3798 343.4556 352.8187 343.1256 355.0538 342.8019 357.2892 342.4779 359.0626 341.8373 360.3745 340.8806 361.6858 339.9233 362.4423 338.4136 362.6442 336.3517 362.8457 334.29 362.2363 332.5416 360.8147 331.107 359.394 329.6727 357.4225 328.8319 354.8991 328.5853 351.2582 328.229 347.8462 329.2574 344.6649 331.6706L347.3583 335.721C350.0495 333.7914 352.4482 332.9297 354.5541 333.1355 355.4974 333.2279 356.218 333.5031 356.7152 333.9618 357.2133 334.4199 357.4284 334.9945 357.3609 335.6855 357.2935 336.3763 356.9542 336.8976 356.3442 337.2474 355.7344 337.5972 354.5646 337.898 352.8346 338.15 350.0963 338.5244 348.0574 339.1608 346.718 340.0597 345.3789 340.9586 344.6025 342.4995 344.389 344.6824 344.1756 346.8648 344.7952 348.6254 346.248 349.9634 347.7005 351.3013 349.6005 352.0851 351.9479 352.3144 353.4831 352.4647 355.0445 352.3518 356.6316 351.9754 358.2187 351.5987 359.6295 350.9836 360.8649 350.1303L358.632 346.125C356.4879 347.4434 354.3523 347.9984 352.224 347.7903ZM373.5522 353.8956C377.0838 354.2411 379.7229 353.8069 381.4696 352.5939 383.2157 351.3807 384.228 349.3534 384.5058 346.5122 384.7836 343.6719 384.1588 341.5122 382.631 340.0342 381.1039 338.5559 378.6395 337.6505 375.2393 337.318L372.1793 337.0187 372.8064 330.6022 367.6737 330.1004 365.4244 353.1008ZM375.1999 341.7987C376.9109 341.966 378.04 342.4252 378.5865 343.1764 379.1336 343.9276 379.3416 344.967 379.2118 346.2936 379.0823 347.6208 378.5899 348.5251 377.7341 349.0064 376.8786 349.4874 375.6064 349.6453 373.9173 349.4801L370.9888 349.1938 371.7445 341.4611ZM404.286 356.9014 404.733 352.3277 393.2816 351.2078 393.7453 346.4691 404.0444 347.4763 404.4725 343.1001 394.1731 342.0933 394.6394 337.3217 406.4525 338.4768 406.8967 333.936 389.9506 332.2789 387.7013 355.2795ZM421.5889 339.9571C424.1117 340.2037 426.0759 341.4036 427.4824 343.5565L431.1045 340.4891C428.7813 337.2939 425.848 335.5234 422.3055 335.177 418.7628 334.8309 415.7359 335.664 413.2247 337.6774 410.7132 339.6906 409.2908 342.4028 408.9574 345.814 408.6238 349.2258 409.5133 352.1857 411.6266 354.6961 413.7398 357.2056 416.486 358.626 419.864 358.9563 423.6372 359.3251 426.9365 358.1974 429.762 355.5726L426.9246 351.6409C425.1039 353.4999 422.987 354.312 420.5738 354.0762 418.6431 353.8871 417.054 353.0948 415.8065 351.6996 414.559 350.3044 414.0397 348.5367 414.2486 346.3982 414.4578 344.2589 415.2728 342.606 416.6935 341.4382 418.1145 340.2703 419.7461 339.7768 421.5889 339.9571ZM443.482 356.2492 445.297 337.6908 440.1638 337.189 438.3488 355.7472 431.8336 355.1102 431.3991 359.5527 449.5626 361.3286 449.9974 356.8867Z" fill="#ffffff"/>
<path transform="matrix(1,0,0,-1,0,720)" d="M277.977 133.6603 273.399 129.4169C281.9849 126.4309 290.7017 124.1337 302.5497 121.7679 336.2593 115.0362 394.1731 109.9315 421.187 90.1256 425.6138 91.6767 440.1649 95.0669 446.601 97.2111 423.775 112.3784 351.2676 117.3614 304.0342 126.1806 294.5137 127.9585 285.6594 130.1817 277.977 133.6603" fill="#ffffff" fill-rule="evenodd"/>
<path transform="matrix(1,0,0,-1,0,720)" d="M287.5569 219.82 278.9538 204.9443 272.6277 208.6033C271.0383 209.5223 269.96 210.3265 269.394 211.0093 268.8245 211.6947 268.524 212.5015 268.4857 213.4341 268.4492 214.3701 268.6816 215.2752 269.1904 216.1548 269.8373 217.273 270.6956 218.0058 271.7705 218.3545 272.8454 218.7031 274.0861 218.5954 275.4984 218.033 275.0692 218.7848 274.7764 219.509 274.6196 220.2046 274.4595 220.9028 274.3583 222.0378 274.3138 223.6071L274.1777 227.558 277.7683 225.4813 278.0436 220.9878C278.149 219.388 278.2582 218.3545 278.3713 217.887 278.483 217.425 278.6641 217.0429 278.9186 216.7481 279.1766 216.4507 279.6503 216.1032 280.3425 215.7026L280.9522 215.3503 284.5449 221.5621ZM279.5822 212.9817 277.3593 214.2675C275.9187 215.1006 274.9859 215.5569 274.5558 215.644 274.1289 215.729 273.7227 215.682 273.3497 215.5003 272.9733 215.3208 272.6566 215.005 272.3981 214.558 272.1078 214.056 272.0106 213.5764 272.0971 213.1104 272.1852 212.6483 272.4506 212.2359 272.8894 211.8759 273.1153 211.6993 273.8356 211.2593 275.0511 210.5563L277.3953 209.2005ZM272.7085 228.7542 262.7269 214.7664 252.3728 222.1549 254.0597 224.5187 261.5811 219.1516 263.7978 222.2578 256.8036 227.2484 258.4905 229.6125 265.4844 224.6216 268.1889 228.4115 260.3937 233.9742 262.0806 236.338ZM248.7234 225.2568 243.9111 229.3659C242.8251 230.2929 242.068 231.0814 241.6419 231.7348 241.0705 232.6119 240.7564 233.5742 240.7054 234.6174 240.6487 235.66 240.8374 236.7187 241.2658 237.7996 241.6946 238.8745 242.4322 240.0279 243.4765 241.2507 244.3958 242.3276 245.3193 243.138 246.2516 243.6883 247.3903 244.3626 248.5128 244.7348 249.6195 244.8051 250.4577 244.8624 251.3713 244.6821 252.36 244.2691 253.0996 243.9587 253.9531 243.3875 254.9265 242.5564L259.8817 238.3254ZM247.9629 229.7248 255.3497 238.3764 253.3876 240.0517C252.6545 240.6776 252.089 241.0872 251.6933 241.2828 251.1734 241.5427 250.6646 241.6615 250.1666 241.6448 249.6654 241.6306 249.0789 241.4058 248.4037 240.9724 247.7254 240.5415 246.9543 239.817 246.0917 238.807 245.2294 237.797 244.658 236.9492 244.3751 236.2541 244.0894 235.5625 243.9805 234.9292 244.04 234.3526 244.1024 233.7786 244.3303 233.2264 244.7323 232.6992 245.0271 232.3052 245.7116 231.647 246.7823 230.7328ZM246.9895 249.9216 234.034 238.6324 225.6775 248.222 227.867 250.13 233.9374 243.1636 236.8142 245.6705 231.1696 252.1483 233.3591 254.0563 239.0037 247.5785 242.5139 250.6374 236.2226 257.8569 238.4121 259.7649ZM217.758 257.9786 214.3647 263.3196C213.5991 264.5249 213.1067 265.5009 212.8915 266.2503 212.6027 267.2566 212.5848 268.2689 212.8428 269.2809 213.0948 270.2942 213.586 271.2506 214.3128 272.1583 215.0385 273.0597 216.0822 273.9455 217.4394 274.8081 218.6345 275.5672 219.7553 276.071 220.8084 276.323 222.0945 276.6334 223.2771 276.6594 224.3557 276.4015 225.1735 276.2104 225.9941 275.7694 226.8179 275.0845 227.4335 274.5706 228.0818 273.7738 228.7681 272.6935L232.2624 267.1937ZM218.3431 262.4729 227.9452 268.5736 226.5616 270.7512C226.0446 271.565 225.6242 272.1223 225.3036 272.4256 224.8829 272.8267 224.4314 273.0898 223.9506 273.2202 223.4673 273.3537 222.8406 273.3111 222.0678 273.0951 221.2929 272.8823 220.343 272.416 219.2219 271.7039 218.101 270.9918 217.3056 270.3489 216.8314 269.7678 216.3549 269.1904 216.0649 268.6173 215.9524 268.0483 215.8435 267.4814 215.8994 266.8867 216.1287 266.2645 216.2948 265.8016 216.7557 264.9716 217.5109 263.7831ZM215.6267 277.374C214.058 276.5937 212.6228 276.1744 211.3217 276.1129 210.3647 276.0698 209.4205 276.1988 208.4964 276.4942 207.572 276.7895 206.7806 277.2221 206.1181 277.7907 205.2357 278.5493 204.4814 279.5545 203.8578 280.8079 202.7285 283.0785 202.5323 285.2416 203.2611 287.3061 203.9953 289.3689 205.6158 291.024 208.1265 292.2727 210.6156 293.5108 212.9006 293.8031 214.9758 293.1511 217.0551 292.5011 218.6569 291.0419 219.7809 288.7818 220.9192 286.4934 221.1276 284.3232 220.3988 282.2766 219.6737 280.2314 218.0835 278.5961 215.6267 277.374ZM213.9304 280.5242C215.6743 281.3916 216.7946 282.4537 217.2963 283.7086 217.7943 284.9615 217.7362 286.2099 217.1197 287.4492 216.5017 288.6919 215.5479 289.4865 214.259 289.8417 212.9681 290.1915 211.4308 289.9225 209.6439 289.0338 207.8782 288.1553 206.7525 287.113 206.2726 285.9046 205.7871 284.6982 205.8647 283.4546 206.5045 282.1691 207.1423 280.8867 208.0976 280.0709 209.3652 279.7231 210.6366 279.377 212.1576 279.6423 213.9304 280.5242ZM209.975 295.7797 208.4448 298.8167C209.4279 299.414 210.0538 300.0923 210.3273 300.8625 210.6009 301.6321 210.5467 302.5071 210.1686 303.4888 209.7686 304.5263 209.2465 305.2256 208.6036 305.5822 207.9604 305.9388 207.343 306.0054 206.7534 305.778 206.3724 305.6315 206.0946 305.3957 205.9106 305.0719 205.7306 304.7496 205.6487 304.2723 205.6674 303.645 205.6782 303.2164 205.7774 302.2688 205.9591 300.7956 206.1921 298.9003 206.1298 297.4833 205.7678 296.5422 205.2609 295.2198 204.3709 294.315 203.0981 293.8246 202.2806 293.5097 201.4226 293.4451 200.5328 293.6296 199.6415 293.8178 198.8444 294.2734 198.1358 294.9993 197.4277 295.7253 196.8384 296.6984 196.3638 297.9303 195.5917 299.9347 195.4534 301.6176 195.9559 302.9729 196.4568 304.3315 197.4393 305.3191 198.9085 305.9453L200.2717 302.741C199.4961 302.2835 199.0165 301.7599 198.8283 301.1686 198.6403 300.5776 198.7191 299.8281 199.0672 298.9247 199.4267 297.9916 199.9026 297.3348 200.4934 296.958 200.8746 296.7148 201.2726 296.6709 201.691 296.8319 202.0717 296.9785 202.3345 297.2642 202.4796 297.6888 202.6698 298.2294 202.6471 299.3564 202.415 301.0717 202.1791 302.7855 202.1202 304.096 202.2267 304.9988 202.3356 305.9065 202.6494 306.7047 203.1761 307.3963 203.703 308.088 204.4718 308.6286 205.4835 309.0183 206.4016 309.3721 207.3617 309.4503 208.3612 309.2482 209.3607 309.0461 210.2355 308.5557 210.9832 307.7719 211.7347 306.9899 212.3773 305.9002 212.9139 304.5078 213.6946 302.4811 213.8278 300.7449 213.3094 299.2978 212.7946 297.8521 211.6811 296.6817 209.975 295.7797ZM206.6587 323.8438 192.7446 320.6324 193.8889 315.6746 191.0591 315.0215 187.9931 328.3044 190.823 328.9575 191.9619 324.0232 205.8761 327.2349ZM204.3904 334.4026 187.3281 332.3591 186.459 339.6152C186.2408 341.4382 186.2371 342.7832 186.4437 343.6461 186.6504 344.5126 187.1152 345.2372 187.8384 345.8273 188.5652 346.4181 189.4289 346.7752 190.4377 346.8963 191.7204 347.0499 192.8217 346.8027 193.7455 346.1522 194.6696 345.5014 195.3281 344.4443 195.7252 342.9771 196.069 343.7717 196.4727 344.4403 196.9353 344.9829 197.3976 345.53 198.2449 346.2922 199.4734 347.2693L202.5524 349.7488 203.0457 345.6303 199.6163 342.7138C198.3997 341.6698 197.6383 340.9622 197.3324 340.5912 197.0297 340.2247 196.8327 339.8505 196.7496 339.4701 196.6666 339.0851 196.6728 338.4978 196.7678 337.7035L196.8517 337.0045 203.9766 337.8577ZM194.135 336.6791 193.8297 339.2291C193.6318 340.8812 193.4371 341.9014 193.2486 342.2976 193.0606 342.6902 192.7791 342.9867 192.4101 343.1761 192.0404 343.3697 191.5977 343.4335 191.0852 343.372 190.5094 343.3031 190.0672 343.093 189.7464 342.7444 189.4297 342.3963 189.2591 341.9368 189.2344 341.3696 189.2285 341.083 189.309 340.2425 189.4757 338.8487L189.798 336.1595ZM202.1465 367.1155 202.2687 363.3695 198.4071 361.7589 198.6318 354.8704 202.5884 353.5705 202.7083 349.8925 185.3158 356.0006 185.1959 359.6749ZM195.5415 360.5366 189.2628 357.9426 195.6951 355.8311ZM185.5743 370.2699 186.0962 377.1221C186.1999 378.4822 186.3326 379.4871 186.495 380.1444 186.6617 380.8057 186.9423 381.3823 187.3375 381.8815 187.7366 382.3807 188.2446 382.7832 188.8656 383.089 189.4867 383.3946 190.1701 383.5191 190.9077 383.4629 191.7057 383.4023 192.4271 383.1307 193.0603 382.6491 193.6976 382.1672 194.1514 381.5427 194.4303 380.7797 194.8167 381.7973 195.3961 382.5553 196.1725 383.0618 196.9492 383.5641 197.8319 383.7779 198.8249 383.7022 199.6067 383.6426 200.3508 383.4054 201.0611 382.9864 201.7712 382.5672 202.324 382.0275 202.7186 381.3636 203.1094 380.704 203.322 379.9094 203.3555 378.9805 203.3714 378.4017 203.3056 377.0065 203.1534 374.7997L202.7089 368.9646ZM188.6865 373.5227 192.6351 373.2219 192.8078 375.4877C192.9101 376.8316 192.9538 377.6706 192.9387 378.0006 192.9161 378.5961 192.7483 379.0783 192.435 379.4431 192.1218 379.8082 191.6918 380.0092 191.1413 380.0511 190.6109 380.0914 190.173 379.9766 189.8198 379.7107 189.4666 379.4445 189.2339 379.025 189.1222 378.4561 189.0564 378.1159 188.9614 377.1323 188.8379 375.5092ZM195.4828 373.0051 200.0775 372.655 200.3216 375.8618C200.4165 377.106 200.4412 377.9028 200.3987 378.2429 200.3423 378.7645 200.1467 379.2008 199.8085 379.5514 199.4661 379.9026 198.9961 380.103 198.3861 380.1495 197.8673 380.1889 197.4231 380.0982 197.045 379.8743 196.6671 379.6543 196.3766 379.3113 196.177 378.8532 195.9778 378.3951 195.8156 377.3764 195.6957 375.8009ZM207.8734 401.3096 207.0213 397.6597 202.8742 397.1041 201.3069 390.3925 204.7918 388.1123 203.955 384.5288 188.7381 394.9333 189.574 398.5132ZM199.7898 396.6659 193.0533 395.7866 198.7191 392.0811ZM208.2983 403.2201 192.134 408.613 193.2352 411.9143 206.6448 407.4403 209.3717 415.6138 212.1265 414.6948ZM212.9119 417.0433 197.2222 424.0528 198.6418 427.2299 204.8213 424.4692 207.582 430.6487 201.4024 433.4094 202.8217 436.5867 218.5115 429.5775 217.0922 426.4002 210.2332 429.4644 207.4725 423.2846 214.3312 420.2206ZM227.802 446.2438 225.9258 442.9993 221.7963 443.6734 218.3457 437.707 221.017 434.5123 219.1748 431.3268 207.6398 445.7055 209.4803 448.888ZM218.7179 444.1504 212.0168 445.2676 216.3606 440.0751ZM215.0354 457.6504 218.7113 462.8013C219.5405 463.9635 220.2605 464.7864 220.8742 465.2674 221.6985 465.9126 222.63 466.3094 223.6646 466.4506 224.6984 466.5974 225.7696 466.5013 226.8833 466.1685 227.9914 465.8346 229.2046 465.1999 230.5134 464.2656 231.666 463.4433 232.5538 462.5935 233.1828 461.7125 233.9532 460.6367 234.4215 459.5508 234.5876 458.4543 234.7177 457.6243 234.6171 456.6983 234.2917 455.6778 234.0465 454.9141 233.5516 454.0141 232.808 452.9721L229.0229 447.6682ZM219.4206 458.7959 228.6805 452.1878 230.1792 454.288C230.7393 455.0726 231.0982 455.6716 231.2589 456.0826 231.4723 456.6231 231.5466 457.1405 231.4868 457.6351 231.4293 458.1329 231.1543 458.6978 230.6639 459.3328 230.1758 459.9711 229.3869 460.6767 228.306 461.448 227.2249 462.2196 226.3306 462.7154 225.614 462.9368 224.8999 463.1613 224.2596 463.2148 223.6901 463.1057 223.1237 462.9937 222.5934 462.7185 222.103 462.2723 221.7365 461.9443 221.1401 461.2054 220.3223 460.0593ZM232.6068 467.0663C231.3425 468.2792 230.4635 469.4888 229.966 470.6923 229.6026 471.5785 229.405 472.5111 229.371 473.4805 229.3367 474.4505 229.4768 475.3414 229.7883 476.157 230.2044 477.2435 230.8955 478.2932 231.8649 479.3034 233.6207 481.1329 235.5908 482.0479 237.78 482.0593 239.9698 482.0647 242.0745 481.098 244.0979 479.1566 246.1037 477.2319 247.1505 475.1799 247.2375 473.0063 247.3277 470.8295 246.4948 468.8291 244.7473 467.0082 242.9776 465.1637 241.0053 464.235 238.8328 464.2296 236.6629 464.2217 234.5868 465.1662 232.6068 467.0663ZM234.9989 469.7266C236.4046 468.3779 237.7826 467.6822 239.133 467.6335 240.4806 467.5878 241.6363 468.0641 242.5946 469.063 243.5553 470.0642 243.9814 471.2304 243.8802 472.5635 243.7736 473.8966 243.0014 475.2527 241.5614 476.6346 240.1384 478.0001 238.7772 478.7076 237.4778 478.7515 236.1781 478.8011 235.0341 478.3079 234.0397 477.2718 233.0484 476.2386 232.6031 475.0637 232.7037 473.7532 232.8072 472.4396 233.5703 471.0974 234.9989 469.7266ZM252.2767 475.062 240.9868 488.0171 246.4965 492.8185C247.8807 494.0246 248.9905 494.7846 249.8199 495.0989 250.6527 495.4158 251.5133 495.4391 252.4079 495.1738 253.3054 494.905 254.0866 494.392 254.7539 493.626 255.6028 492.6521 256.0184 491.6027 256.0003 490.4728 255.9821 489.3429 255.4787 488.2037 254.4894 487.0497 255.3398 487.2127 256.1196 487.2552 256.8285 487.1784 257.5409 487.1038 258.6475 486.832 260.1465 486.3662L263.929 485.2162 260.8019 482.491 256.4612 483.6852C254.9134 484.1033 253.9001 484.3346 253.4213 484.3786 252.9479 484.4228 252.5278 484.3749 252.1664 484.2298 251.8016 484.0818 251.3197 483.7462 250.7165 483.2206L250.1855 482.758 254.9001 477.3481ZM248.3881 484.8208 250.3244 486.508C251.5788 487.601 252.3127 488.336 252.534 488.7147 252.7529 489.0912 252.8396 489.4906 252.7883 489.9025 252.7404 490.3169 252.5443 490.7186 252.2049 491.1077 251.824 491.5451 251.4016 491.7926 250.9328 491.8615 250.467 491.9275 249.9911 491.8102 249.5083 491.5114 249.268 491.3549 248.6186 490.8155 247.5601 489.8931L245.5183 488.1138ZM265.57 486.176 255.5308 500.1228 265.8543 507.5538 267.5509 505.1968 260.0515 499.7988 262.281 496.7016 269.2545 501.7212 270.951 499.3642 263.9775 494.3446 266.6976 490.566 274.4697 496.1605 276.1662 493.8035ZM275.2495 499.4555 278.0022 501.4522C278.7491 500.5777 279.519 500.0686 280.3229 499.9218 281.1266 499.775 281.9815 499.9686 282.89 500.4992 283.8501 501.0599 284.4567 501.6875 284.7056 502.3791 284.9547 503.0714 284.9216 503.6913 284.6027 504.237 284.3969 504.5893 284.1197 504.8257 283.771 504.9556 283.4237 505.0817 282.9396 505.0862 282.3233 504.9672 281.9018 504.8878 280.9826 504.6381 279.5573 504.2228 277.7241 503.6896 276.315 503.5241 275.3283 503.7307 273.9416 504.019 272.9061 504.7529 272.2181 505.9307 271.7765 506.6872 271.5752 507.5237 271.6149 508.4317 271.658 509.3416 271.98 510.2014 272.5829 511.0169 273.1861 511.8324 274.0524 512.5697 275.1925 513.2356 277.0475 514.3187 278.6862 514.7246 280.1047 514.4457 281.526 514.169 282.6581 513.3572 283.5113 512.007L280.5667 510.1486C279.991 510.8409 279.3974 511.2303 278.7837 511.3213 278.1703 511.4126 277.4429 511.2145 276.607 510.7263 275.7433 510.222 275.1712 509.6469 274.894 509.0034 274.7149 508.5884 274.7353 508.1882 274.9612 507.8013 275.167 507.4489 275.491 507.2352 275.9335 507.1601 276.4976 507.0589 277.6065 507.2615 279.2625 507.7655 280.9162 508.2729 282.2003 508.5408 283.1085 508.5805 284.0219 508.6182 284.8603 508.4362 285.6274 508.0269 286.3942 507.6179 287.0512 506.9455 287.5978 506.0095 288.0941 505.1597 288.3251 504.2245 288.2854 503.2054 288.246 502.1867 287.9022 501.2444 287.2483 500.381 286.5966 499.5139 285.624 498.7049 284.3354 497.9526 282.46 496.8573 280.7674 496.4479 279.256 496.7277 277.7465 497.0044 276.4128 497.916 275.2495 499.4555ZM298.9522 505.281 292.7744 521.3163 296.0218 522.5672 302.1996 506.5319ZM305.2358 507.7205 299.5019 523.9196 304.4151 525.659 311.2294 515.6382 310.1882 527.7022 315.1131 529.4455 320.8467 513.246 317.8151 512.1729 313.2899 524.9217 314.61 511.0384 311.4575 509.9227 303.7649 521.5501 308.2674 508.7934ZM324.2951 513.4459 320.4303 530.1899 323.8211 530.9725 327.6859 514.2285ZM338.0675 522.4059 337.7222 525.2893 345.1331 526.1769 345.9484 519.3697C345.3137 518.5806 344.3431 517.8399 343.0372 517.1397 341.7344 516.4438 340.3803 516.0115 338.9743 515.8431 337.191 515.6294 335.5934 515.8171 334.1772 516.4089 332.7647 517.0011 331.6388 517.9581 330.8046 519.2719 329.9703 520.5861 329.4547 522.0675 329.2583 523.7076 329.0451 525.4869 329.2288 527.1126 329.8056 528.5874 330.3867 530.0589 331.3477 531.2537 332.693 532.1639 333.7209 532.8632 335.0455 533.308 336.674 533.503 338.7909 533.7564 340.5005 533.5101 341.7985 532.7631 343.0928 532.0117 344.0064 530.8764 344.5362 529.3446L341.1819 528.2901C340.8435 529.0997 340.3111 529.7088 339.5891 530.1176 338.872 530.5232 338.0168 530.6666 337.0238 530.5479 335.5226 530.3679 334.3842 529.7479 333.6134 528.6847 332.8421 527.6217 332.5671 526.1505 332.7919 524.2717 333.0351 522.2424 333.6661 520.7751 334.6849 519.8698 335.7079 518.9649 336.9444 518.5973 338.402 518.7719 339.1209 518.8581 339.8264 519.0877 340.5158 519.4562 341.2086 519.8253 341.7868 520.2448 342.2588 520.7125L341.9994 522.8768ZM349.4358 517.2769 348.8754 534.452 356.1797 534.6904C358.0146 534.7502 359.3551 534.6377 360.1967 534.3571 361.0423 534.0764 361.7237 533.5503 362.2493 532.779 362.7748 532.0037 363.056 531.1125 363.0892 530.0972 363.1314 528.8057 362.7901 527.73 362.0619 526.8657 361.3337 526.0017 360.2237 525.437 358.7275 525.1683 359.4892 524.757 360.1205 524.2969 360.6214 523.7892 361.1262 523.2813 361.8122 522.3711 362.6793 521.0629L364.8835 517.7809 360.7379 517.6457 358.1289 521.3146C357.1937 522.6168 356.5548 523.4366 356.2115 523.7734 355.8725 524.1067 355.5167 524.3352 355.1448 524.4511 354.7687 524.5668 354.183 524.6116 353.3837 524.5855L352.6798 524.5625 352.9137 517.3906ZM352.5905 527.2971 355.1573 527.3807C356.8204 527.4351 357.8536 527.5409 358.2646 527.6942 358.672 527.8479 358.992 528.1024 359.2125 528.4539 359.4373 528.8051 359.5391 529.2408 359.5221 529.7567 359.5034 530.3364 359.3324 530.7951 359.0127 531.1449 358.6935 531.4904 358.2505 531.7002 357.6875 531.7739 357.4023 531.8045 356.5582 531.7971 355.155 531.7512L352.4482 531.663ZM382.197 516.2834 378.4601 516.5683 377.2774 520.5815 370.4051 521.1051 368.6839 517.3129 365.0148 517.5924 372.9728 534.2202 376.6382 533.9409ZM376.3732 523.5627 374.4751 530.0858 371.6787 523.9205ZM384.0103 515.7992 387.1573 532.6929 390.4682 532.076 395.3117 519.4596 397.4207 530.7809 400.5822 530.1921 397.4355 513.2985 394.0183 513.9349 389.2405 526.3155 387.1721 515.2102ZM404.6661 511.1014 408.5056 524.8556 403.6051 526.2236 404.386 529.0209 417.5161 525.3554 416.7354 522.5584 411.8576 523.9199 408.018 510.1656ZM414.9249 507.7508 421.3417 523.692 433.1415 518.9423 432.057 516.2482 423.4853 519.6986 422.0603 516.1586 430.0311 512.9501 428.9465 510.2563 420.9761 513.4646 419.2376 509.1454 428.1211 505.5695 427.0365 502.8755ZM431.7834 506.9937 434.8811 505.5902C434.4911 504.5083 434.4296 503.5873 434.7 502.8163 434.9704 502.0452 435.5617 501.3984 436.4725 500.8717 437.4351 500.315 438.2804 500.0984 439.005 500.2248 439.7295 500.351 440.2517 500.6869 440.568 501.2337 440.7724 501.5871 440.8407 501.9449 440.7806 502.3123 440.7185 502.6762 440.4827 503.0991 440.0742 503.5759 439.7967 503.9028 439.1246 504.578 438.0582 505.6104 436.6871 506.9395 435.846 508.0819 435.5371 509.0414 435.1011 510.389 435.2261 511.6521 435.9093 512.8328 436.3478 513.591 436.9748 514.1803 437.7832 514.5951 438.5954 515.0081 439.5019 515.1538 440.509 515.0336 441.5159 514.9131 442.5857 514.5256 443.7283 513.8646 445.5879 512.7891 446.7518 511.5662 447.2116 510.1957 447.6747 508.8237 447.5296 507.4381 446.7793 506.0285L443.7065 507.6669C444.0231 508.5096 444.0679 509.2183 443.8431 509.7966 443.6184 510.3748 443.0863 510.9089 442.2484 511.3936 441.3827 511.8942 440.5997 512.1065 439.9036 512.0289 439.4543 511.979 439.1167 511.7632 438.8922 511.3755 438.6881 511.0223 438.6628 510.6348 438.8165 510.2133 439.0075 509.673 439.7329 508.8098 440.9904 507.6204 442.2498 506.4347 443.1183 505.4516 443.6022 504.6823 444.0872 503.9073 444.344 503.0887 444.3684 502.2196 444.3925 501.3507 444.1334 500.4471 443.5906 499.5088 443.0982 498.657 442.4 497.9934 441.4949 497.5231 440.5901 497.0531 439.6011 496.8856 438.5273 497.0262 437.4513 497.1634 436.267 497.6079 434.9752 498.3551 433.0953 499.4425 431.9016 500.7101 431.3965 502.1623 430.8897 503.6105 431.0218 505.2209 431.7834 506.9937ZM449.3239 490.1678 459.9595 503.6652 465.6997 499.1423C467.1417 498.0059 468.0944 497.0563 468.5573 496.2997 469.0233 495.5403 469.2059 494.6987 469.1109 493.7703 469.0134 492.8389 468.6542 491.976 468.0255 491.178 467.2259 490.163 466.2717 489.56 465.158 489.3684 464.0445 489.1765 462.8316 489.4597 461.5143 490.218 461.8318 489.4123 462.0186 488.6541 462.0745 487.9431 462.1334 487.2294 462.0716 486.0913 461.8922 484.5319L461.4639 480.602 458.2057 483.169 458.5737 487.656C458.6975 489.2545 458.7367 490.2931 458.6913 490.7716 458.6468 491.2449 458.5218 491.6489 458.312 491.9771 458.0989 492.3082 457.6799 492.7195 457.0515 493.2147L456.4984 493.6504 452.0571 488.0143ZM458.1918 495.7997 460.209 494.21C461.516 493.1802 462.3744 492.5954 462.7877 492.448 463.1981 492.3031 463.6066 492.2918 464.0017 492.4185 464.4 492.5424 464.7586 492.81 465.078 493.2153 465.4369 493.6708 465.6016 494.132 465.5823 494.6054 465.5608 495.0754 465.3573 495.5213 464.974 495.94 464.7756 496.1472 464.1253 496.6855 463.0226 497.5543L460.8952 499.2304ZM463.015 479.5166 474.9126 491.9159 484.0906 483.1092 482.08 481.0139 475.4126 487.4111 472.7707 484.6578 478.9704 478.709 476.9597 476.6134 470.7601 482.5621 467.5365 479.2028 474.4463 472.5726 472.4357 470.4772ZM474.5041 468.364 487.4596 479.6532 495.2169 470.751 493.0277 468.843 487.5562 475.122 484.4801 472.4413 489.2102 467.013 487.021 465.1053 482.2909 470.5336 476.7902 465.7405ZM498.0648 467.3276 500.0978 464.5035 492.5404 459.0629C491.3391 458.1984 490.589 457.6039 490.2843 457.2811 489.7993 456.7496 489.5419 456.1353 489.5201 455.4397 489.4977 454.7381 489.7672 454.0008 490.3279 453.2219 490.8957 452.433 491.4884 451.9525 492.1058 451.7861 492.7235 451.6194 493.2958 451.6668 493.8313 451.929 494.367 452.1912 495.186 452.717 496.2898 453.5116L504.0099 459.0689 506.0429 456.2444 498.7094 450.9652C497.0341 449.7596 495.7957 448.9812 494.9943 448.636 494.193 448.2907 493.4078 448.1493 492.6362 448.2147 491.8666 448.2771 491.0975 448.5515 490.3245 449.0297 489.5487 449.5116 488.7655 450.2982 487.9732 451.3986 487.0176 452.7264 486.4459 453.8429 486.2611 454.7497 486.0765 455.6568 486.0853 456.4862 486.2914 457.2408 486.4975 457.9954 486.8235 458.6244 487.2745 459.1412 487.94 459.9011 489.056 460.8425 490.6176 461.9667ZM503.4801 439.3344 505.9877 440.7987 509.7518 434.3536 503.8316 430.8962C502.8551 431.1641 501.7893 431.7599 500.6271 432.6792 499.4702 433.5973 498.5345 434.6674 497.8205 435.8903 496.9148 437.4411 496.4508 438.9812 496.4301 440.5161 496.4111 442.0477 496.8408 443.4613 497.7142 444.7497 498.5878 446.038 499.7412 447.1007 501.1676 447.9338 502.7151 448.8375 504.2795 449.316 505.8621 449.3738 507.4435 449.4266 508.9221 449.0206 510.2926 448.149 511.3431 447.4843 512.2783 446.4462 513.1054 445.0297 514.1806 443.1889 514.635 441.5224 514.4666 440.0345 514.2923 438.5477 513.6146 437.2577 512.4203 436.1621L510.1174 438.8193C510.7255 439.4523 511.0724 440.1831 511.1603 441.0079 511.2471 441.8274 511.0381 442.669 510.5339 443.5325 509.7713 444.8381 508.7494 445.6358 507.4671 445.9198 506.1849 446.2038 504.7257 445.8708 503.0918 444.9166 501.3269 443.886 500.2319 442.7229 499.8073 441.4277 499.3841 440.1295 499.5391 438.8488 500.2795 437.5811 500.6446 436.9558 501.1362 436.3999 501.7484 435.9144 502.363 435.4254 502.9778 435.0623 503.5946 434.8154L505.4771 435.9146ZM502.7394 426.7083 518.3957 433.7918 519.8304 430.6212 504.174 423.5377ZM510.8309 405.9763 509.5803 409.5094 512.7729 412.2136 510.4729 418.7106 506.3085 418.7514 505.0806 422.2205 523.506 421.6654 524.7329 418.1998ZM515.1336 414.246 520.3324 418.6196 513.5627 418.6843ZM528.2226 408.0909 529.6459 401.925C529.9671 400.5337 530.1065 399.4495 530.06 398.6711 529.9974 397.6262 529.6776 396.6656 529.0977 395.797 528.5231 394.9254 527.7413 394.1867 526.754 393.5727 525.7698 392.9638 524.4908 392.4757 522.9238 392.114 521.5442 391.7957 520.3199 391.6936 519.243 391.8061 517.9266 391.9416 516.803 392.3104 515.8718 392.9122 515.164 393.3649 514.5369 394.0534 513.9879 394.9736 513.5783 395.663 513.2319 396.6301 512.9442 397.8771L511.4786 404.2261ZM526.1754 404.0473 515.0911 401.4887 515.6714 398.9747C515.8879 398.0353 516.0991 397.3697 516.3004 396.9771 516.5637 396.4589 516.9022 396.0607 517.3121 395.7778 517.7234 395.4909 518.3286 395.3225 519.1291 395.2695 519.9307 395.2123 520.9818 395.3358 522.2758 395.6343 523.5698 395.9331 524.5336 396.2744 525.1742 396.6647 525.8157 397.0508 526.28 397.4947 526.5751 397.9939 526.8665 398.4922 527.0119 399.0719 527.0026 399.7346 526.9997 400.2265 526.8413 401.1627 526.5247 402.5347ZM523.7442 389.0554C525.4838 389.2637 526.9765 389.1767 528.2226 388.798 529.1382 388.5171 529.9843 388.0786 530.7559 387.4901 531.5275 386.9016 532.1276 386.2284 532.5608 385.4704 533.1373 384.4596 533.5104 383.2597 533.677 381.8696 533.9784 379.3516 533.4367 377.248 532.0573 375.548 530.6732 373.8515 528.5911 372.8367 525.8069 372.5033 523.0466 372.1728 520.7961 372.6646 519.0599 373.9754 517.3197 375.2858 516.3009 377.1981 516.001 379.7042 515.6969 382.242 516.2295 384.3564 517.6029 386.0396 518.9726 387.7226 521.0195 388.7291 523.7442 389.0554ZM524.2844 385.5186C522.3501 385.287 520.9384 384.6626 520.0447 383.6489 519.1549 382.6361 518.7903 381.4404 518.955 380.0662 519.12 378.688 519.7516 377.6196 520.8466 376.8523 521.945 376.0892 523.4834 375.8264 525.4651 376.0637 527.423 376.2984 528.8332 376.9021 529.6912 377.8792 530.5535 378.8527 530.8977 380.05 530.727 381.4758 530.5567 382.898 529.9308 383.9871 528.8536 384.7402 527.7722 385.4931 526.2503 385.7539 524.2844 385.5186ZM522.8711 369.8595 523.3173 366.4882C522.1925 366.2473 521.3784 365.8127 520.8667 365.1755 520.3551 364.5386 520.1186 363.6944 520.1529 362.643 520.1892 361.5316 520.4523 360.6996 520.9424 360.1514 521.4325 359.6029 521.9938 359.337 522.625 359.3577 523.0332 359.371 523.3728 359.5022 523.6532 359.7474 523.9293 359.9926 524.1637 360.4164 524.3522 361.0151 524.4829 361.4233 524.7009 362.3508 525.0138 363.8018 525.4172 365.6682 525.9421 366.986 526.5935 367.7556 527.5069 368.8379 528.6453 369.3994 530.0084 369.4439 530.8841 369.4725 531.7157 369.2514 532.4953 368.7846 533.2748 368.3134 533.8777 367.6212 534.3083 366.7025 534.7383 365.7841 534.9745 364.6712 535.0175 363.352 535.0876 361.205 534.6649 359.5703 533.7445 358.4557 532.8247 357.3371 531.572 356.728 529.9784 356.6197L529.7451 360.0941C530.6278 360.271 531.2531 360.6077 531.625 361.1041 531.9972 361.6004 532.1693 362.3343 532.1378 363.3018 532.1052 364.3013 531.8717 365.0783 531.4377 365.6282 531.1576 365.9834 530.7962 366.1557 530.3483 366.1413 529.9407 366.1279 529.5983 365.9445 529.3216 365.5913 528.9642 365.1435 528.6149 364.0717 528.27 362.3754 527.9289 360.6792 527.5536 359.4226 527.1562 358.6051 526.7548 357.7836 526.1958 357.1328 525.471 356.6529 524.7462 356.1732 523.8422 355.9153 522.7588 355.8801 521.7752 355.8481 520.8429 356.0899 519.9653 356.6095 519.088 357.1291 518.423 357.88 517.9748 358.8659 517.5224 359.8517 517.2738 361.0922 517.225 362.5835 517.1545 364.7543 517.5998 366.4375 518.5653 367.634 519.5268 368.8296 520.9634 369.5689 522.8711 369.8595ZM517.0116 346.1068 534.0739 344.0633 532.5613 331.4336 529.6776 331.7791 530.7766 340.9534 526.9876 341.4073 525.966 332.8761 523.0823 333.2217 524.1042 341.7525 519.4811 342.3064 518.3425 332.7979 515.4591 333.1434ZM509.5208 309.6714 510.5285 313.2814 514.6954 313.6589 516.5481 320.2974 513.1641 322.7247 514.1534 326.2691 528.9114 315.2231 527.923 311.682ZM517.7957 313.9651 524.5634 314.5552 519.0613 318.4997ZM508.8951 307.9185 524.8363 301.5017 522.7588 296.3404C521.9717 294.3848 521.3812 293.1435 520.9826 292.614 520.374 291.7981 519.5469 291.2428 518.4975 290.9494 517.4481 290.6561 516.2888 290.7649 515.0197 291.2757 514.04 291.6703 513.2917 292.1783 512.7659 292.7996 512.2412 293.4247 511.8987 294.0843 511.736 294.7836 511.577 295.4815 511.5489 296.1397 511.6533 296.7531 511.8103 297.5822 512.1791 298.7232 512.7647 300.1779L513.6069 302.2707 507.5957 304.6904ZM520.8429 299.3581 516.3009 301.1862 515.5946 299.431C515.0852 298.1656 514.8315 297.2891 514.8266 296.7951 514.8218 296.3013 514.9471 295.8625 515.2102 295.4767 515.4693 295.092 515.8318 294.8037 516.3066 294.6127 516.8894 294.378 517.4368 294.3561 517.951 294.5412 518.4672 294.7306 518.8762 295.0614 519.1835 295.5458 519.4077 295.8999 519.7541 296.653 520.2201 297.8107ZM495.8147 279.2985 497.5013 282.6456 501.6628 282.2102 504.7642 288.3651 501.9134 291.401 503.5694 294.6872 515.9129 280.9959 514.2583 277.7131ZM504.7637 281.9109 511.5178 281.1813 506.8823 286.1155ZM517.0467 279.7795 519.4412 276.745 517.7889 273.4659 516.1178 277.9362ZM492.4485 274.6369 504.4252 266.8603 507.1961 271.1276 509.6319 269.5462 502.2079 258.1129 499.7724 259.6944 502.5302 263.9415 490.5533 271.7184ZM486.2988 265.7662 499.7962 255.1309 495.2735 249.3907C494.1371 247.9484 493.1875 246.996 492.431 246.5328 491.6716 246.0671 490.8302 245.8845 489.9016 245.9795 488.9701 246.0767 488.1073 246.4359 487.3093 247.0646 486.2942 247.8643 485.6913 248.8184 485.4994 249.9318 485.3078 251.0456 485.591 252.2582 486.3489 253.5758 485.5436 253.258 484.7851 253.0715 484.0741 253.0157 483.3604 252.9567 482.2226 253.0182 480.6632 253.1976L476.733 253.626 479.3003 256.8841 483.787 256.5162C485.3854 256.3926 486.4241 256.3532 486.9028 256.3988 487.3759 256.4433 487.7799 256.5683 488.1081 256.7781 488.4392 256.9912 488.8505 257.4102 489.3457 258.0386L489.7814 258.5917 484.145 263.033ZM491.9306 256.8986 490.341 254.8811C489.3111 253.5741 488.7266 252.7157 488.5792 252.3025 488.4341 251.8923 488.4228 251.4835 488.5498 251.0884 488.6736 250.6901 488.9412 250.3318 489.3466 250.0123 489.8021 249.6532 490.263 249.4885 490.7367 249.5078 491.2067 249.5293 491.6526 249.7331 492.0712 250.1161 492.2785 250.3145 492.8165 250.9648 493.6856 252.0677L495.3617 254.1949ZM475.272 252.561 487.671 240.6631 485.2616 238.1522 472.8626 250.05ZM481.9825 234.5703 477.2115 230.4128C476.1351 229.4748 475.2439 228.8415 474.5353 228.5161 473.584 228.0796 472.5859 227.9098 471.5464 228.0127 470.507 228.1096 469.4873 228.4515 468.481 229.034 467.4807 229.6157 466.448 230.5145 465.3916 231.7269 464.4615 232.7944 463.7951 233.8268 463.3877 234.83 462.8877 236.0551 462.6845 237.2202 462.7772 238.3251 462.8432 239.1625 463.1559 240.0401 463.7095 240.9574 464.125 241.6431 464.8153 242.4039 465.7802 243.2446L470.6926 247.5255ZM477.451 234.4737 469.9772 243.0499 468.032 241.3548C467.3052 240.7215 466.8171 240.2223 466.5654 239.8595 466.2323 239.3836 466.0401 238.8977 465.9834 238.4025 465.9239 237.9047 466.0603 237.2916 466.3899 236.5603 466.7165 235.8261 467.3203 234.9567 468.1928 233.9555 469.0653 232.9543 469.8201 232.2646 470.4659 231.8828 471.1085 231.4987 471.7185 231.298 472.2979 231.2722 472.8747 231.2495 473.4544 231.3944 474.035 231.7144 474.4678 231.9483 475.2193 232.5288 476.2809 233.4538ZM445.0629 227.0815 448.1048 229.271 451.5945 226.9627 457.1881 230.9893 456.0619 234.9986 459.0485 237.1484 463.6726 219.3038 460.6889 217.1563ZM454.2066 225.265 459.8603 221.4984 458.0277 228.0155ZM447.0083 221.8629 444.2556 219.8662C443.5087 220.7407 442.7388 221.2498 441.9349 221.3966 441.1312 221.5434 440.2763 221.3498 439.3678 220.8192 438.4077 220.2585 437.8011 219.6309 437.5522 218.9392 437.3031 218.247 437.3362 217.6271 437.6551 217.0814 437.8609 216.7291 438.1381 216.4927 438.4868 216.3628 438.834 216.2367 439.3182 216.2322 439.9345 216.3512 440.356 216.4306 441.2752 216.6803 442.7005 217.0956 444.5337 217.6288 445.9428 217.7943 446.9295 217.5877 448.3162 217.2994 449.3517 216.5655 450.0397 215.3877 450.4813 214.6311 450.6826 213.7946 450.6429 212.8867 450.5998 211.9768 450.2778 211.117 449.6749 210.3015 449.0717 209.486 448.2054 208.7487 447.0653 208.0828 445.2103 206.9997 443.5716 206.5938 442.1531 206.8727 440.7318 207.1494 439.5997 207.9612 438.7465 209.3114L441.6911 211.1698C442.2668 210.4775 442.8604 210.0881 443.4741 209.9971 444.0875 209.9058 444.8149 210.1039 445.6508 210.5921 446.5145 211.0963 447.0866 211.6715 447.3638 212.315 447.5429 212.73 447.5225 213.1302 447.2966 213.5171 447.0908 213.8695 446.7668 214.0832 446.3243 214.1583 445.7602 214.2595 444.6513 214.0569 442.9953 213.5529 441.3416 213.0454 440.0575 212.7776 439.1493 212.7379 438.2359 212.7002 437.3974 212.8822 436.6304 213.2915 435.8636 213.7005 435.2066 214.3729 434.66 215.3089 434.1637 216.1587 433.9327 217.0939 433.9723 218.1129 434.0117 219.1317 434.3556 220.074 435.0095 220.9374 435.6612 221.8045 436.6338 222.6135 437.9224 223.3658 439.7978 224.4611 441.4904 224.8705 443.0018 224.5907 444.5113 224.314 445.845 223.4024 447.0083 221.8629" fill="#ffffff"/>
<path transform="matrix(1,0,0,-1,0,720)" d="M359.9101 200.1376 357.99 193.4776 351.93 193.5975 357.0588 189.0873 355.0351 182.7465 359.97 186.9375 365.07 182.9177 363.1501 189.5777 368.0702 193.6576H362.01Z" fill="#ffffff" fill-rule="evenodd"/>
<path transform="matrix(1,0,0,-1,0,720)" d="M388.0814 204.1569 386.1612 197.4969 380.1013 197.6168 385.23 193.1066 383.2064 186.7657 388.1412 190.9568 393.2413 186.9369 391.3214 193.5969 396.2415 197.6769H390.1813Z" fill="#ffffff" fill-rule="evenodd"/>
<path transform="matrix(1,0,0,-1,0,720)" d="M413.3418 209.9095 411.4216 203.2495 405.3617 203.3694 410.4904 198.8592 408.4668 192.5184 413.4016 196.7094 418.5017 192.6896 416.5818 199.3496 421.5019 203.4295H415.4417Z" fill="#ffffff" fill-rule="evenodd"/>
<path transform="matrix(1,0,0,-1,0,720)" d="M331.9186 204.1569 333.8388 197.4969 339.8987 197.6168 334.77 193.1066 336.7936 186.7657 331.8588 190.9568 326.7587 186.9369 328.6786 193.5969 323.7585 197.6769H329.8187Z" fill="#ffffff" fill-rule="evenodd"/>
<path transform="matrix(1,0,0,-1,0,720)" d="M306.6582 209.9095 308.5784 203.2495 314.6383 203.3694 309.5096 198.8592 311.5332 192.5184 306.5984 196.7094 301.4983 192.6896 303.4182 199.3496 298.4981 203.4295H304.5583Z" fill="#ffffff" fill-rule="evenodd"/>
<path transform="matrix(1,0,0,-1,0,720)" d="M442.023 133.6603 446.601 129.4169C438.0151 126.4309 429.2983 124.1337 417.4503 121.7679 383.7407 115.0362 325.8269 109.9315 298.813 90.1256 294.3862 91.6767 279.8351 95.0669 273.399 97.2111 296.225 112.3784 368.7324 117.3614 415.9658 126.1806 425.4863 127.9585 434.3406 130.1817 442.023 133.6603" fill="#ffffff" fill-rule="evenodd"/>
<path transform="matrix(1,0,0,-1,0,720)" d="M268.8001 359.2519 263.0931 357.9245C262.6203 357.8145 262.1477 358.109 262.038 358.5818 261.9281 359.0544 262.222 359.5266 262.6948 359.6366L268.4018 360.9641C268.8749 361.074 269.3472 360.7798 269.4572 360.3073 269.5671 359.8345 269.2729 359.3619 268.8001 359.2519ZM268.4815 344.7434C268.5906 344.2711 268.2967 343.7997 267.8241 343.6897L262.1171 342.3623C261.6449 342.2526 261.1729 342.546 261.0624 343.0179L261.0626 343.0165C261.1726 342.5437 261.6449 342.2494 262.118 342.3594L267.825 343.6869C268.2978 343.7969 268.5917 344.2691 268.4818 344.742ZM258.5687 354.316 257.7061 358.0254 258.5687 354.316ZM258.044 319.6678 251.4101 317.1226C250.9041 321.2039 251.6272 324.4521 253.2937 324.8396 254.8227 325.1954 256.7024 323.0342 258.044 319.6678ZM259.6541 312.745C259.9359 309.1314 259.2028 306.362 257.6741 306.0065 256.0082 305.619 253.9256 308.217 252.5786 312.1004H252.578L251.2879 311.9808C249.9551 311.8612 248.7779 312.8451 248.6585 314.1777 248.5621 315.2551 249.1914 316.266 250.2009 316.6549L251.4112 317.1169 258.0454 319.6616 261.3404 320.9318 263.1702 313.0648ZM270.7835 341.7715 270.2962 306.8368 264.9104 305.5842 257.79 338.7492 256.1805 338.3751C255.4486 338.1993 254.6768 338.3297 254.0429 338.7356 251.6763 340.278 250.5917 344.0877 250.5917 344.0877L277.6864 350.3894C277.6876 350.3897 277.6887 350.39 277.6898 350.3903 279.002 350.697 279.8169 352.0097 279.5102 353.3221 279.2035 354.634 277.8922 355.4493 276.5806 355.1443L249.124 348.7581C247.8444 348.4397 247.049 347.1622 247.3279 345.873 247.6128 344.5557 248.9122 343.7186 250.2298 344.0035L250.5917 344.0877 277.4072 350.3234C277.5733 349.274 277.6192 348.209 277.5438 347.1494 277.4628 346.0861 277.2255 344.9336 276.6702 343.9984 276.2807 343.3544 275.6455 342.8969 274.911 342.7313ZM269.464 356.3983 263.7567 355.0711C263.2839 354.9611 262.8116 355.2554 262.7016 355.7282 262.5917 356.2007 262.8859 356.6733 263.3587 356.7832L269.0657 358.1104C269.5385 358.2204 270.0108 357.9265 270.1208 357.4536 270.2307 356.9811 269.9368 356.5083 269.464 356.3983ZM269.638 364.1584 251.3758 359.911C248.908 359.3367 247.3727 356.8708 247.9465 354.403L249.2518 348.7907 276.4514 355.117 275.1463 360.7291C274.5723 363.1972 272.1061 364.7324 269.638 364.1584" fill="#00aeef"/>
</g>
</svg>
